<svg version="1.2" xmlns="http://www.w3.org/2000/svg" viewBox="0 0 96 96" width="96" height="96">
	<title>user-svg</title>
	<style>
		.s0 { fill: #ffffff } 
	</style>
	<g id="Layer">
		<path id="Layer" fill-rule="evenodd" class="s0" d="m63.7 22.3c7 8 6.9 19.8-0.2 27.5l-3.3 3.6 4.4 2.8c5.4 3.4 10 9.6 11.9 16.1 2.2 7.5 2 8.7-1.5 8.7-2.1 0-3-0.5-3-1.6 0-4.1-2.7-10-6.6-14.3l-4.2-4.6-2.2 2.8c-6 7.5-16 7.5-22 0l-2.2-2.8-4.2 4.6c-3.9 4.3-6.6 10.2-6.6 14.3 0 1.1-0.9 1.6-3 1.6-3.5 0-3.7-1.2-1.5-8.7 1.9-6.5 6.5-12.7 11.9-16.1l4.4-2.8-3.3-3.6c-9.5-10.4-6-26.9 7-32.9 8.1-3.8 18.1-1.5 24.2 5.4zm-22.9 0.8c-4.3 2.2-7.8 8.1-7.8 12.9 0 7.4 7.6 15 14.9 15 7.7 0 15.1-7.4 15.1-15 0-5-3.5-10.7-8-13-4.9-2.5-9.4-2.5-14.2 0.1zm7.2 33.9c-6.4 0-7.8 1.2-4.9 3.9 1.2 1.1 3.5 2.1 4.9 2.1 3.4 0 7.8-3.9 5.8-5.1-0.7-0.5-3.3-0.9-5.8-0.9z"/>
	</g>
</svg>